<?xml version="1.0" encoding="utf-8"?><svg xmlns="http://www.w3.org/2000/svg" xmlns:xlink="http://www.w3.org/1999/xlink" width="1931" height="1731" preserveAspectRatio="xMidYMid" viewBox="0 0 1931 1731" style="z-index:1;margin-right:-2px;display:block;animation-play-state:paused" ><g transform="translate(965.5,865.5) scale(1,1) translate(-965.5,-865.5)" style="transform:matrix(1, 0, 0, 1, 0, 0);animation-play-state:paused" ><linearGradient id="lg-0.5166725391033928" x1="0" x2="1" y1="0" y2="0" style="animation-play-state:paused" ><stop stop-color="#597ffb" offset="0" style="animation-play-state:paused" ></stop>

  
<stop stop-color="#5a7ead" offset="1" style="animation-play-state:paused" ></stop></linearGradient>
<path d="M 1493.4 866 C 1493.4 1029.8 1241.2 1184.6 1085.4 1235.2 C 929.6 1285.8 642 1302.8 545.8 1170.2 C 449.6 1037.6 384 645.4 480.2 512.8 C 576.4 380.2 927.4 454 1083.2 504.6 C 1239 555.2 1493.4 702.2 1493.4 866" fill="url(#lg-0.5166725391033928)" opacity="0.4" style="opacity:0.4;animation-play-state:paused" ></path>
<path d="M 1510 866 C 1510 1036.8 1269.2 1245.6 1106.6 1298.8 C 944 1352 601.4 1341.2 501 1203 C 400.6 1064.8 358.2 635.2 458.6 497 C 559 358.8 960.6 328.2 1123.2 381.4 C 1285.8 434.6 1510 695.2 1510 866" fill="url(#lg-0.5166725391033928)" opacity="0.4" style="opacity:0.4;animation-play-state:paused" ></path>
<path d="M 1607.2 866 C 1607.2 1041.6 1278 1257.8 1111.2 1312.4 C 944.4 1367 653.2 1310.2 549.8 1167.8 C 446.4 1025.4 367.4 648.6 470.8 506.2 C 574.2 363.8 944.4 363.6 1111.2 418.2 C 1278 472.8 1607.2 690.4 1607.2 866" fill="url(#lg-0.5166725391033928)" opacity="0.4" style="opacity:0.4;animation-play-state:paused" ></path>
<path d="M 1591.6 866 C 1591.6 1036.4 1277.6 1275.8 1116 1328.6 C 954.4 1381.4 625.6 1323.2 525.6 1185.2 C 425.6 1047.2 438.2 693 538.2 555 C 638.2 417 942 388.8 1103.6 441.6 C 1265.2 494.4 1591.6 695.6 1591.6 866" fill="url(#lg-0.5166725391033928)" opacity="0.4" style="opacity:0.4;animation-play-state:paused" ></path>
<path d="M 1521.8 866 C 1521.8 1040.6 1272.4 1241.8 1105.6 1296 C 938.8 1350.2 596.8 1349.6 494 1208 C 391.2 1066.4 356 639.2 458.8 497.6 C 561.6 356 934 395 1100.8 449.2 C 1267.6 503.4 1521.8 691.4 1521.8 866" fill="url(#lg-0.5166725391033928)" opacity="0.4" style="opacity:0.4;animation-play-state:paused" ></path></g></svg>